<svg width="22" height="22" viewBox="0 0 22 22" fill="none" xmlns="http://www.w3.org/2000/svg">
<path d="M5.55844 1.64624L7.67358 2.87268V5.32557L5.55844 6.53315L3.44141 5.31048V2.87268L5.55844 1.64624ZM5.55844 0.000915527L2.01685 2.04436V6.13314L5.55844 8.17847L9.09814 6.13314V2.04436L5.55844 0.000915527Z" fill="#FF9933"/>
<path d="M9.47562 8.43754L11.5964 9.6621V12.115L9.47562 13.3226L7.36047 12.1018V9.6621L9.47562 8.44132V8.43754ZM9.47562 6.79599L5.93591 8.83566V12.9244L9.47562 14.9698L13.0172 12.9244V8.83566L9.47562 6.79222V6.79599Z" fill="#F03F44"/>
<path d="M13.4122 15.2332L15.5273 16.4559V18.9088L13.4122 20.1296L11.2952 18.8975V16.4559L13.4122 15.2351V15.2332ZM13.4122 13.5879L9.87061 15.6313V19.7201L13.4122 21.7636L16.9519 19.7201V15.6313L13.4122 13.586V13.5879Z" fill="#1890FF"/>
<path d="M5.54159 15.2332L7.65674 16.4559V18.9088L5.54159 20.1295L3.42645 18.8974V16.4559L5.54159 15.2351V15.2332ZM5.54159 13.5879L2 15.6313V19.7201L5.54159 21.7635L9.08319 19.7201V15.6313L5.54159 13.586V13.5879Z" fill="#26A570"/>
<path d="M17.3116 8.43762L19.4286 9.66218V12.1151L17.3116 13.3226L15.1965 12.1019V9.66218L17.3116 8.44139V8.43762ZM17.3116 6.79607L13.77 8.83574V12.9245L17.3116 14.9698L20.8532 12.9245V8.83574L17.3116 6.7923V6.79607Z" fill="#5F36DD"/>
</svg>
